<svg xmlns="http://www.w3.org/2000/svg" viewBox="0 0 19.92 19.92">
  <path class="svg-logo" stroke="#fff" fill="#4c4d4d" stroke-miterlimit="10" stroke-width="0.75px" fill-rule="evenodd" d="m11.3,6.99l2.18,2.19,5.67-5.66-2.18-2.19-5.67,5.66h0Z"/>
  <path class="svg-logo" stroke="#fff" fill="red" stroke-miterlimit="10" stroke-width="0.75px" d="m19.22,7.48c-.09-.33-.2-.66-.32-.98l-3.19,3.13c0,.11,0,.22,0,.33,0,3.17-2.58,5.76-5.76,5.76s-5.76-2.58-5.76-5.76,2.58-5.76,5.76-5.76c.43,0,.85.05,1.26.14l3-2.97c-.24-.12-.49-.23-.74-.33-1.12-.44-2.3-.67-3.52-.67-1.29,0-2.55.25-3.73.75-1.14.48-2.17,1.17-3.05,2.05-.88.88-1.57,1.9-2.05,3.05-.5,1.18-.75,2.44-.75,3.73s.25,2.55.75,3.73c.48,1.14,1.17,2.17,2.05,3.05.88.88,1.9,1.57,3.05,2.05,1.18.5,2.44.75,3.73.75s2.55-.25,3.73-.75c1.14-.48,2.17-1.17,3.05-2.05.88-.88,1.57-1.9,2.05-3.05.5-1.18.75-2.44.75-3.73,0-.84-.11-1.68-.32-2.48Z"/>
</svg>